<svg id="Layer_1" data-name="Layer 1" xmlns="http://www.w3.org/2000/svg" xmlns:xlink="http://www.w3.org/1999/xlink" viewBox="0 0 890.1 1080"><defs><style>.cls-1,.cls-12{fill:none;}.cls-2{clip-path:url(#clip-path);}.cls-3{fill:#515151;}.cls-3,.cls-4{opacity:0.53;}.cls-4{fill:#999;}.cls-5{fill:#7d2b18;}.cls-6{fill:#551c20;}.cls-7{fill:#ba4c26;}.cls-8{fill:#f78f1e;}.cls-9{fill:#4d160e;}.cls-10{fill:#002539;}.cls-11{fill:#0b3442;}.cls-12{stroke:#ef5595;stroke-linecap:round;stroke-miterlimit:10;stroke-width:6.4px;}.cls-13{fill:#c5c9e6;}.cls-14{fill:#d9dbee;}.cls-15{fill:#972c1f;}.cls-16{clip-path:url(#clip-path-2);}</style><clipPath id="clip-path"><circle class="cls-1" cx="440.89" cy="551.81" r="321.9"/></clipPath><clipPath id="clip-path-2"><circle class="cls-1" cx="463.37" cy="563.27" r="318.44"/></clipPath></defs><g class="cls-2"><path class="cls-3" d="M625.07,467.94a24.41,24.41,0,0,0,16.79-22.87,25.57,25.57,0,0,0-16.32-23.82,24.26,24.26,0,0,0,10.07-26.45A25.85,25.85,0,0,0,618,376.74a22.46,22.46,0,0,0-2.81-2.95,24.39,24.39,0,0,0,1.13-26.23,26,26,0,0,0-15.64-12.12,21.1,21.1,0,0,0-9-4.78,24.85,24.85,0,0,0-6.39-24.09,26.11,26.11,0,0,0-11.62-6.84A20.21,20.21,0,0,0,557,298.14a25.31,25.31,0,0,0-12.45-23.5,26,26,0,0,0-25.69-.62c-1.77-8.22-7.5-15.15-15.53-17.49l-.59-.14a26.15,26.15,0,0,0-5.75-2.46c-5.93-1.72-15.35-2.72-24.47.93a20.5,20.5,0,0,0-12.82-4.57c-9.31,0-17.24,6.37-20.34,15.31-5.12-7.76-14.3-11.69-23.29-9.07s-15.13,11-16,20.51a20.36,20.36,0,0,0-24.66-2.21c-8.07,5.06-12,14.88-10.57,24.31a20.47,20.47,0,0,0-24.34,4.79,25.15,25.15,0,0,0-4.42,26.46c-8.68-1.56-17.72,2.71-22.37,11.48a25.28,25.28,0,0,0,2,26.79c-8.75.94-16.46,7.61-18.87,17.38a24.71,24.71,0,0,0,8.34,25.31c-8.22,3.36-14.09,12-14.09,22.09s5.87,18.73,14.09,22.1a24.69,24.69,0,0,0-8.34,25.3c2.41,9.78,10.12,16.44,18.87,17.39a25.27,25.27,0,0,0-2,26.79c4.42,8.32,12.8,12.58,21.07,11.66.3.27.62.53.94.79a25.29,25.29,0,0,0,2.81,23v11.2a2.74,2.74,0,0,1,5.47,0V566a21.3,21.3,0,0,0,3,1.8,61.59,61.59,0,0,0,17,28.58L382.44,614v9.43h0v27.36h-4v40h-5.88v27.09c-30,12.55-60.23,42.58-66.84,111.43h-.16V965.41H605.46V829.28S595.51,731,504.36,712V690.76h-5.88v-40h-7.29v-40.7a19.88,19.88,0,0,0,12.13.3c9-2.62,15.13-11,16-20.51A20.36,20.36,0,0,0,544,592.05c8.06-5,12-14.88,10.56-24.3a20.48,20.48,0,0,0,24.35-4.8,25.15,25.15,0,0,0,4.42-26.45C592,538.05,601,533.78,605.68,525a24.87,24.87,0,0,0,2.68-8.42c13.93-2.41,24.94-13.57,27-20.7C638.36,485.67,633.41,474.07,625.07,467.94ZM418.53,677.61l-.47.73-.37-.73Z"/></g><circle class="cls-4" cx="456.69" cy="561.43" r="319.61"/><path d="M622.56,468c8.14-3.33,13.94-11.85,13.94-21.86s-5.8-18.52-13.94-21.86a24.44,24.44,0,0,0,8.26-25c-2.39-9.67-10-16.26-18.68-17.2a25,25,0,0,0,2-26.5c-4.61-8.67-13.55-12.89-22.14-11.36a24.85,24.85,0,0,0-4.37-26.16,20.24,20.24,0,0,0-24.08-4.75c1.41-9.33-2.48-19-10.46-24.05a20.15,20.15,0,0,0-24.39,2.19c-.86-9.41-6.93-17.7-15.83-20.29s-18,1.29-23,9c-3.07-8.84-10.91-15.14-20.12-15.14s-17.05,6.3-20.12,15.14c-5.07-7.68-14.14-11.56-23-9s-15,10.88-15.83,20.29a20.16,20.16,0,0,0-24.4-2.19c-8,5-11.86,14.72-10.45,24.05a20.26,20.26,0,0,0-24.09,4.75,24.87,24.87,0,0,0-4.36,26.16c-8.59-1.53-17.53,2.69-22.14,11.36a25,25,0,0,0,2,26.5c-8.66.94-16.29,7.53-18.68,17.2a24.44,24.44,0,0,0,8.26,25c-8.14,3.34-13.94,11.85-13.94,21.86s5.8,18.53,13.94,21.86a24.46,24.46,0,0,0-8.26,25c2.39,9.67,10,16.26,18.68,17.19a25,25,0,0,0-2,26.51c4.61,8.67,13.55,12.89,22.14,11.35a24.89,24.89,0,0,0,4.36,26.17A20.27,20.27,0,0,0,375.89,579c-1.41,9.32,2.47,19,10.45,24.05a20.16,20.16,0,0,0,24.4-2.19c.86,9.4,6.93,17.7,15.83,20.29s18-1.3,23-9c3.07,8.85,10.91,15.15,20.12,15.15s17-6.3,20.12-15.15c5.07,7.68,14.14,11.57,23,9s15-10.89,15.83-20.29a20.15,20.15,0,0,0,24.39,2.19c8-5,11.87-14.73,10.46-24.05a20.26,20.26,0,0,0,24.08-4.75A24.87,24.87,0,0,0,592,548.11c8.59,1.54,17.53-2.68,22.14-11.35a25,25,0,0,0-2-26.51c8.66-.93,16.29-7.52,18.68-17.19A24.46,24.46,0,0,0,622.56,468Z"/><circle class="cls-5" cx="525.74" cy="526.68" r="18.91" transform="translate(-69.2 79.64) rotate(-8.13)"/><circle class="cls-6" cx="525.73" cy="526.68" r="8.1" transform="translate(-87.31 104.83) rotate(-10.52)"/><circle class="cls-5" cx="358.87" cy="534.3" r="18.91" transform="translate(-71.95 56.12) rotate(-8.13)"/><circle class="cls-6" cx="358.87" cy="534.3" r="8.1" transform="translate(-91.51 74.49) rotate(-10.52)"/><rect class="cls-5" x="393.31" y="574.81" width="107.58" height="112.9"/><path class="cls-6" d="M393.31,574.81v59.27l4.1,3.26C513,654.74,500.89,689.6,500.89,689.6V574.81Z"/><path class="cls-7" d="M523,564.48V465.73c0-47.42-27.26-85.86-76.88-85.86h0c-49.62,0-89.84,38.44-89.84,85.86v98.1a60.26,60.26,0,0,0,18.87,43.55L400.87,632c25.17,24,53,24,78.17,0l25.07-24A60.24,60.24,0,0,0,523,564.48Z"/><path class="cls-8" d="M352.57,546a2.7,2.7,0,0,0-2.71,2.7v34.21a2.71,2.71,0,0,1,5.41,0V548.7A2.7,2.7,0,0,0,352.57,546Z"/><path class="cls-8" d="M522.54,545.52a2.7,2.7,0,0,0-2.7,2.7v34.21a2.7,2.7,0,0,1,5.4,0V548.22A2.7,2.7,0,0,0,522.54,545.52Z"/><circle class="cls-9" cx="408.8" cy="553.85" r="4.05"/><circle class="cls-9" cx="433.11" cy="553.85" r="4.05"/><path d="M388.15,533.76h0c-5.2,0-9.42-4.9-9.42-10.94V508.9c0-6,4.22-10.93,9.42-10.93h0c5.21,0,9.43,4.9,9.43,10.93v13.92C397.58,528.86,393.36,533.76,388.15,533.76Z"/><path d="M451.94,533.76h0c-5.2,0-9.42-4.9-9.42-10.94V508.9c0-6,4.22-10.93,9.42-10.93h0c5.21,0,9.43,4.9,9.43,10.93v13.92C461.37,528.86,457.15,533.76,451.94,533.76Z"/><path class="cls-10" d="M404.82,489.09h-29.6a8.46,8.46,0,0,1-8.46-8.46h0a8.45,8.45,0,0,1,8.46-8.45h29.6a8.45,8.45,0,0,1,8.45,8.45h0A8.45,8.45,0,0,1,404.82,489.09Z"/><path class="cls-11" d="M399.7,483H379.89a3.6,3.6,0,0,1-3.6-3.6h0a3.6,3.6,0,0,1,3.6-3.6H399.7a3.6,3.6,0,0,1,3.6,3.6h0A3.6,3.6,0,0,1,399.7,483Z"/><path class="cls-10" d="M438.68,489.09h29.6a8.46,8.46,0,0,0,8.46-8.46h0a8.45,8.45,0,0,0-8.46-8.45h-29.6a8.45,8.45,0,0,0-8.45,8.45h0A8.45,8.45,0,0,0,438.68,489.09Z"/><path class="cls-11" d="M443.8,483h19.81a3.6,3.6,0,0,0,3.6-3.6h0a3.6,3.6,0,0,0-3.6-3.6H443.8a3.6,3.6,0,0,0-3.6,3.6h0A3.6,3.6,0,0,0,443.8,483Z"/><path class="cls-12" d="M403.28,590.65s16.67,17.18,34.9,0"/><polygon class="cls-13" points="446.08 661.14 508.1 661.14 508.1 712.37 413.18 712.37 446.08 661.14"/><polygon class="cls-14" points="414.72 661.14 389.35 661.14 389.35 712.37 440.68 712.37 414.72 661.14"/><rect class="cls-10" x="383.52" y="700.73" width="130.4" height="28.46"/><path class="cls-15" d="M461.08,385.15a23.83,23.83,0,0,0,.22,11.43,26,26,0,0,0,22,18.8,23.88,23.88,0,0,0-2.68,27.93,26.41,26.41,0,0,0,26.21,12.75,24.23,24.23,0,0,0,4.92,27.79,26.14,26.14,0,0,0,11.61,6.78V388Z"/><path class="cls-10" d="M643.53,508c3-10.12-1.95-21.59-10.19-27.65a24.14,24.14,0,0,0,16.6-22.63A25.3,25.3,0,0,0,633.8,434.1a24,24,0,0,0,10-26.17A25.76,25.76,0,0,0,622,389.13a24.12,24.12,0,0,0,2.65-27.93,26,26,0,0,0-25.88-12.75,24.46,24.46,0,0,0-4.85-27.79,25.93,25.93,0,0,0-28.24-5.83,25,25,0,0,0-12-25.76A25.66,25.66,0,0,0,525,290.55a25.47,25.47,0,0,0-18.37-22c-10.43-3-31.76-3.8-43,19.54-4.56,9.49,1.19,20.67,9.44,26.73a24.16,24.16,0,0,0-16.61,22.62A25.32,25.32,0,0,0,472.63,361a24,24,0,0,0-10,26.17A25.72,25.72,0,0,0,484.41,406,24.15,24.15,0,0,0,481.77,434a26,26,0,0,0,25.87,12.74,24.49,24.49,0,0,0,4.86,27.8,25.93,25.93,0,0,0,28.24,5.83,25,25,0,0,0,12,25.76,25.62,25.62,0,0,0,28.67-1.49c.91,10,8.33,17.83,18.38,22C620.8,535.22,640.68,517.75,643.53,508Z"/><path d="M547.29,360.32a12.41,12.41,0,0,1-17.17,4,12.6,12.6,0,0,1-4.55-17.14,12.42,12.42,0,0,1,17.17-4A12.59,12.59,0,0,1,547.29,360.32Z"/><ellipse cx="566.29" cy="460.5" rx="22.53" ry="23.29" transform="translate(-140.21 643.81) rotate(-53.66)"/><path d="M583.83,406.43a8.28,8.28,0,0,1-11.45,2.65,8.4,8.4,0,0,1-3-11.43A8.28,8.28,0,0,1,580.8,395,8.4,8.4,0,0,1,583.83,406.43Z"/><path class="cls-10" d="M317.38,838l296.56-.25s-14.2-140.3-164.73-116.45C449.21,721.3,331.07,693.92,317.38,838Z"/><g class="cls-16"><rect class="cls-10" x="317.24" y="837.75" width="296.7" height="134.67"/></g></svg>